<svg id="cat" viewBox="0 0 198 189" xmlns="http://www.w3.org/2000/svg">
  <path d="M198 189H0V53.3071V0L52.0348 44.5287H146.602L198 0V53.3071V189Z" fill="white" />
  <path d="M101.195 141.443C106.791 140.719 111.049 137.317 111.049 133.191C111.049 128.56 105.65 124.808 99 124.808C92.3502 124.808 86.9514 128.56 86.9514 133.191C86.9514 137.295 91.1871 140.719 96.8053 141.443V153.535H87.2806V157.924H110.719V153.535H101.195V141.443Z" fill="black" />
  <path d="M61.5814 116.644C70.7446 116.644 78.1729 109.215 78.1729 100.052C78.1729 90.8893 70.7446 83.4611 61.5814 83.4611C52.4182 83.4611 44.99 90.8893 44.99 100.052C44.99 109.215 52.4182 116.644 61.5814 116.644Z" />
  <path d="M136.418 116.644C145.582 116.644 153.01 109.215 153.01 100.052C153.01 90.8893 145.582 83.4611 136.418 83.4611C127.255 83.4611 119.827 90.8893 119.827 100.052C119.827 109.215 127.255 116.644 136.418 116.644Z" />
</svg>
