<svg id="disk" viewBox="0 0 641 639" fill="none" xmlns="http://www.w3.org/2000/svg">
  <path d="M240.155 94.5542C241.087 94.2193 241.752 93.9022 242.151 93.6029C242.572 93.2568 242.793 92.7877 242.814 92.1957C242.857 91.5568 242.697 90.6791 242.335 89.5625L233.424 61.8478L249.521 56.0616L262.545 92.2919L256.748 94.3757L245.585 63.3212L240.616 65.1073L247.865 87.224C248.952 90.5737 249.112 93.1853 248.343 95.059C247.575 96.9326 245.759 98.3842 242.895 99.4137L242.015 99.7299L240.155 94.5542Z" fill="white"/>
  <path d="M281.578 78.8807C281.63 81.2388 281.441 83.2008 281.01 84.7668C280.607 86.2889 279.809 87.5632 278.615 88.5896C277.457 89.6078 275.752 90.3753 273.5 90.8921C272.821 91.0479 272.281 91.1531 271.88 91.2076L270.674 85.9542C270.932 85.9325 271.294 85.8683 271.758 85.7617C273.009 85.4746 273.903 85.025 274.44 84.4127C274.976 83.8005 275.221 82.898 275.173 81.7052L275.152 81.3712L260.36 54.294L266.203 52.9529L272.36 65.0266L276.201 73.3997L275.589 64.342L275.316 50.8613L281.481 49.4464L281.578 78.8807Z" fill="white"/>
  <path d="M315.224 85.1886L309.211 85.8579L307.495 70.443C306.953 71.2044 306.21 71.822 305.266 72.2959C304.36 72.7658 303.469 73.0494 302.594 73.1467C300.189 73.4144 298.243 72.8378 296.757 71.4168C295.303 69.9553 294.426 67.8762 294.126 65.1796L292.325 48.9995L298.338 48.3302L300.084 64.0184C300.222 65.2574 300.655 66.1684 301.384 66.7513C302.109 67.2978 302.982 67.5143 304.002 67.4007C304.986 67.2912 305.715 66.8781 306.189 66.1613C306.658 65.4081 306.822 64.3937 306.68 63.1183L304.952 47.5941L310.965 46.9249L315.224 85.1886Z" fill="white"/>
  <path d="M323.374 47.5614L329.424 47.5772L329.337 80.5771L334.562 80.5908L334.649 47.5909L340.699 47.6068L340.612 80.6067L345.837 80.6203L345.924 47.6204L351.974 47.6363L351.873 86.1361L323.273 86.0613L323.374 47.5614Z" fill="white"/>
  <path d="M377.368 67.1199L376.497 72.5505L368.297 71.2355L366.512 82.3682L376.83 84.0229L375.959 89.4535L359.667 86.8409L365.763 48.8266L382.055 51.4392L381.184 56.8698L370.866 55.2152L369.168 65.8049L377.368 67.1199Z" fill="white"/>
  <path d="M411.137 91.6469L407.129 102.772L401.437 100.721L414.486 64.5003L420.178 66.5509L414.493 82.3329L427.629 69.2353L433.321 71.2858L419.588 84.5779L420.272 107.507L414.425 105.4L414.089 88.9691L411.137 91.6469Z" fill="white"/>
  <path d="M438.297 84.9516C439.66 82.1897 441.422 80.4014 443.583 79.5867C445.743 78.7721 448.155 79.022 450.818 80.3365C453.481 81.6509 455.147 83.4133 455.814 85.6236C456.481 87.8339 456.133 90.32 454.77 93.0819L445.91 111.034C444.546 113.796 442.785 115.585 440.624 116.399C438.464 117.214 436.052 116.964 433.389 115.65C430.726 114.335 429.06 112.573 428.393 110.362C427.726 108.152 428.074 105.666 429.437 102.904L438.297 84.9516ZM434.692 105.927C433.572 108.196 433.949 109.793 435.823 110.718C437.697 111.643 439.194 110.971 440.314 108.702L449.515 90.059C450.635 87.7903 450.258 86.1935 448.384 85.2684C446.51 84.3434 445.013 85.0153 443.893 87.284L434.692 105.927Z" fill="white"/>
  <path d="M483.199 101.144L480.226 105.771L474.905 102.351L457.062 130.111L451.972 126.84L469.816 99.0797L464.495 95.6598L467.469 91.0331L483.199 101.144Z" fill="white"/>
  <path d="M485.297 115.324C487.219 112.917 489.322 111.546 491.606 111.212C493.891 110.878 496.194 111.637 498.515 113.49C500.836 115.343 502.086 117.42 502.266 119.722C502.446 122.024 501.575 124.378 499.653 126.785L487.162 142.431C485.241 144.838 483.138 146.209 480.853 146.543C478.569 146.878 476.266 146.118 473.945 144.265C471.624 142.412 470.373 140.335 470.194 138.033C470.014 135.731 470.885 133.377 472.806 130.97L485.297 115.324ZM477.294 135.045C475.716 137.022 475.743 138.663 477.376 139.967C479.01 141.271 480.616 140.934 482.194 138.957L495.165 122.71C496.744 120.733 496.716 119.092 495.083 117.788C493.45 116.484 491.844 116.821 490.265 118.798L477.294 135.045Z" fill="white"/>
  <path d="M520.011 134.869C522.225 137.063 523.324 139.184 523.307 141.232C523.316 143.255 522.262 145.334 520.146 147.469L519.178 148.446C517.785 149.852 516.402 150.779 515.029 151.226C513.683 151.699 512.322 151.692 510.946 151.206C512.256 154.155 511.388 157.167 508.342 160.24L506.135 162.467C504.045 164.577 501.885 165.636 499.655 165.646C497.477 165.656 495.32 164.603 493.185 162.487L486.426 155.789L513.526 128.442L520.011 134.869ZM506.79 143.835L508.47 145.5C509.329 146.351 510.187 146.762 511.042 146.733C511.924 146.729 512.881 146.206 513.913 145.164L515.423 143.64C516.404 142.651 516.931 141.754 517.005 140.95C517.105 140.171 516.778 139.408 516.023 138.66L513.952 136.608L506.79 143.835ZM494.595 156.141L497.056 158.58C497.811 159.329 498.565 159.688 499.317 159.659C500.094 159.603 500.973 159.081 501.954 158.091L504.316 155.708C505.555 154.458 506.185 153.379 506.207 152.472C506.28 151.564 505.822 150.619 504.833 149.639L502.918 147.742L494.595 156.141Z" fill="white"/>
  <path d="M556.148 183.383L560.861 190.355L528.967 211.919L525.763 207.181L548.636 191.716L523.422 203.718L520.218 198.98L540.245 179.994L517.692 195.243L514.734 190.869L546.628 169.305L551.342 176.276L531.192 195.277L556.148 183.383Z" fill="white"/>
  <path d="M556.851 206.248C559.62 204.9 562.108 204.566 564.315 205.245C566.521 205.924 568.274 207.599 569.574 210.27C570.874 212.94 571.111 215.353 570.285 217.509C569.458 219.665 567.66 221.417 564.891 222.765L546.89 231.528C544.121 232.876 541.633 233.21 539.427 232.531C537.22 231.851 535.467 230.176 534.167 227.506C532.867 224.835 532.63 222.422 533.457 220.266C534.283 218.111 536.081 216.359 538.85 215.011L556.851 206.248ZM541.152 220.619C538.877 221.726 538.197 223.219 539.112 225.099C540.027 226.978 541.622 227.364 543.896 226.256L562.589 217.157C564.864 216.05 565.544 214.556 564.629 212.677C563.714 210.798 562.12 210.412 559.845 211.519L541.152 220.619Z" fill="white"/>
  <path d="M577.032 231.443L582.312 246.494L577.122 248.315L573.845 238.973L542.705 249.896L540.702 244.187L577.032 231.443Z" fill="white"/>
  <path d="M560.054 278.861C557.697 278.931 555.733 278.757 554.164 278.338C552.639 277.947 551.359 277.158 550.323 275.972C549.296 274.822 548.515 273.123 547.981 270.876C547.82 270.198 547.711 269.658 547.653 269.257L552.897 268.011C552.921 268.27 552.988 268.631 553.098 269.094C553.395 270.343 553.851 271.233 554.468 271.765C555.084 272.297 555.988 272.534 557.181 272.477L557.515 272.454L584.477 257.455L585.863 263.287L573.837 269.537L565.494 273.441L574.547 272.76L588.025 272.384L589.487 278.537L560.054 278.861Z" fill="white"/>
  <path d="M591.996 306.515L586.534 307.165L585.787 300.884L553.018 304.784L552.303 298.777L585.072 294.877L584.324 288.596L589.786 287.946L591.996 306.515Z" fill="white"/>
  <path d="M590.804 339.23L589.682 356.133L584.194 355.769L584.915 344.903L575.092 344.251L574.859 347.763C574.66 350.763 573.686 352.977 571.938 354.404C570.226 355.834 567.833 356.447 564.76 356.243L560.644 355.97C557.571 355.766 555.262 354.841 553.718 353.195C552.21 351.552 551.555 349.23 551.755 346.23L552.388 336.681L590.804 339.23ZM557.242 346.594C557.175 347.619 557.398 348.405 557.913 348.954C558.428 349.503 559.343 349.821 560.661 349.908L565.545 350.232C566.862 350.319 567.812 350.125 568.395 349.649C568.977 349.174 569.303 348.424 569.371 347.399L569.604 343.887L557.476 343.082L557.242 346.594Z" fill="white"/>
  <path d="M586.708 369.857L585.618 375.808L571.389 373.203L570.874 376.016C570.333 378.973 569.133 381.046 567.275 382.234C565.417 383.422 562.956 383.736 559.89 383.174L554.967 382.273C551.901 381.711 549.71 380.546 548.394 378.776C547.078 377.007 546.691 374.643 547.232 371.686L548.838 362.922L586.708 369.857ZM582.853 390.902L581.764 396.853L543.893 389.918L544.983 383.967L582.853 390.902ZM552.642 372.677C552.464 373.651 552.603 374.421 553.058 374.989C553.506 375.593 554.38 376.014 555.678 376.252L561.359 377.292C562.657 377.53 563.623 377.446 564.256 377.04C564.883 376.671 565.286 375.999 565.464 375.025L565.979 372.212L553.158 369.864L552.642 372.677Z" fill="white"/>
  <path d="M570.403 425.545L565.202 423.757L567.259 417.775L536.053 407.044L538.02 401.323L569.227 412.054L571.284 406.073L576.485 407.862L570.403 425.545Z" fill="white"/>
  <path d="M565.292 435.194L562.753 440.686L549.623 434.616L548.423 437.212C547.161 439.941 545.483 441.649 543.387 442.337C541.292 443.024 538.83 442.714 536.001 441.406L531.458 439.306C528.629 437.998 526.798 436.323 525.964 434.282C525.131 432.24 525.345 429.855 526.607 427.126L530.346 419.038L565.292 435.194ZM531.599 429.434C531.183 430.332 531.125 431.113 531.424 431.777C531.708 432.474 532.449 433.099 533.647 433.653L538.889 436.076C540.088 436.63 541.044 436.79 541.759 436.555C542.458 436.353 543.015 435.802 543.431 434.904L544.631 432.308L532.799 426.838L531.599 429.434Z" fill="white"/>
  <path d="M529.083 493.119L524.614 489.913L528.302 484.774L501.49 465.535L505.017 460.62L531.829 479.859L535.516 474.72L539.985 477.926L529.083 493.119Z" fill="white"/>
  <path d="M514.809 494.421C517.114 496.464 518.374 498.635 518.591 500.934C518.807 503.232 517.93 505.493 515.96 507.715C513.989 509.938 511.85 511.079 509.542 511.14C507.234 511.201 504.928 510.21 502.623 508.167L487.642 494.886C485.337 492.843 484.077 490.672 483.861 488.374C483.645 486.075 484.522 483.814 486.492 481.592C488.462 479.369 490.601 478.228 492.909 478.167C495.217 478.106 497.523 479.097 499.828 481.14L514.809 494.421ZM495.527 485.412C493.634 483.734 491.994 483.676 490.607 485.24C489.221 486.804 489.474 488.425 491.367 490.104L506.924 503.895C508.818 505.573 510.457 505.631 511.844 504.067C513.23 502.503 512.977 500.882 511.084 499.203L495.527 485.412Z" fill="white"/>
  <path d="M479.236 496.31C478.501 496.973 478.005 497.519 477.75 497.947C477.491 498.427 477.465 498.945 477.67 499.501C477.872 500.108 478.353 500.86 479.112 501.756L497.866 524.021L485.166 535.479L459.376 506.894L463.95 502.767L486.055 527.269L489.976 523.733L474.881 506.016C472.605 503.329 471.467 500.973 471.467 498.948C471.468 496.923 472.598 494.891 474.857 492.853L475.552 492.226L479.236 496.31Z" fill="white"/>
  <path d="M473.896 542.473L468.937 545.937L460.653 534.079L458.309 535.717C455.844 537.438 453.533 538.068 451.377 537.607C449.221 537.145 447.25 535.636 445.465 533.081L442.599 528.978C440.815 526.423 440.077 524.054 440.385 521.87C440.694 519.687 442.08 517.734 444.545 516.013L451.85 510.91L473.896 542.473ZM447.695 520.522C446.883 521.088 446.44 521.734 446.364 522.458C446.258 523.203 446.583 524.116 447.339 525.198L450.646 529.933C451.402 531.015 452.147 531.634 452.883 531.791C453.589 531.969 454.348 531.775 455.159 531.208L457.504 529.57L450.039 518.884L447.695 520.522Z" fill="white"/>
  <path d="M430.332 537.434L424.672 527.051L429.984 524.155L448.411 557.959L443.099 560.855L435.07 546.126L436.146 564.645L430.834 567.541L430.009 548.447L412.406 533.738L417.863 530.763L430.375 541.419L430.332 537.434Z" fill="white"/>
  <path d="M417.836 562.013C419 564.865 419.171 567.37 418.349 569.527C417.526 571.684 415.74 573.324 412.991 574.447C410.241 575.569 407.817 575.647 405.72 574.682C403.623 573.716 401.992 571.807 400.829 568.956L393.263 550.42C392.099 547.569 391.928 545.064 392.75 542.907C393.573 540.749 395.359 539.109 398.109 537.987C400.858 536.865 403.282 536.786 405.379 537.752C407.476 538.718 409.107 540.626 410.271 543.478L417.836 562.013ZM404.524 545.408C403.568 543.066 402.122 542.289 400.187 543.079C398.252 543.869 397.763 545.435 398.719 547.777L406.575 567.026C407.531 569.368 408.977 570.144 410.912 569.355C412.847 568.565 413.336 566.999 412.38 564.656L404.524 545.408Z" fill="white"/>
  <path d="M359.328 560.462L357.037 548.861L362.973 547.689L370.429 585.46L364.494 586.632L361.245 570.174L356.724 588.166L350.788 589.337L355.72 570.873L343.332 551.566L349.429 550.363L358.175 564.277L359.328 560.462Z" fill="white"/>
  <path d="M336.839 551.077L339.933 589.453L333.903 589.939L332.577 573.492L325.724 574.045L327.05 590.492L320.91 590.987L317.816 552.611L323.956 552.116L325.282 568.563L332.135 568.01L330.809 551.564L336.839 551.077Z" fill="white"/>
  <path d="M308.975 551.397L307.431 589.866L302.046 589.65L303.023 565.304L300.485 573.679L294.901 589.363L288.252 589.096L289.795 550.627L295.236 550.846L294.149 577.939L297.001 568.586L302.765 551.148L308.975 551.397Z" fill="white"/>
  <path d="M275.466 586.424L259.717 583.899L260.588 578.468L270.363 580.036L275.588 547.452L281.562 548.41L275.466 586.424Z" fill="white"/>
  <path d="M257.457 542.99L247.353 580.141L242.152 578.726L248.546 555.215L244.201 562.811L235.253 576.85L228.831 575.103L238.935 537.953L244.189 539.382L237.073 565.546L241.944 557.067L251.46 541.359L257.457 542.99Z" fill="white"/>
  <path d="M229.672 539.565L224.263 537.391L226.211 532.543L230.937 527.863L233.234 528.786L229.703 533.294L231.846 534.156L229.672 539.565Z" fill="white"/>
  <path d="M189.238 525.533L195.228 515.337L200.444 518.402L180.941 551.597L175.725 548.532L184.223 534.068L168.896 544.52L163.68 541.455L179.628 530.922L183.183 508.26L188.542 511.409L185.842 527.62L189.238 525.533Z" fill="white"/>
  <path d="M161.511 527.326C159.661 529.788 157.599 531.22 155.326 531.621C153.052 532.022 150.728 531.331 148.353 529.547C145.979 527.763 144.668 525.723 144.421 523.428C144.174 521.132 144.975 518.753 146.825 516.291L158.851 500.285C160.701 497.823 162.763 496.391 165.037 495.99C167.311 495.588 169.635 496.28 172.009 498.064C174.384 499.848 175.695 501.888 175.942 504.183C176.189 506.479 175.388 508.858 173.538 511.32L161.511 527.326ZM168.932 507.378C170.452 505.355 170.376 503.716 168.705 502.461C167.034 501.205 165.439 501.589 163.919 503.612L151.431 520.233C149.911 522.255 149.986 523.894 151.657 525.15C153.328 526.405 154.924 526.022 156.443 523.999L168.932 507.378Z" fill="white"/>
  <path d="M120.471 503.377L124.239 499.371L128.846 503.705L151.458 479.67L155.865 483.816L133.253 507.851L137.859 512.185L134.091 516.191L120.471 503.377Z" fill="white"/>
  <path d="M120.66 488.685C118.327 490.696 116.007 491.656 113.7 491.563C111.393 491.47 109.27 490.299 107.331 488.05C105.391 485.801 104.546 483.528 104.793 481.233C105.041 478.937 106.331 476.784 108.664 474.772L123.826 461.699C126.159 459.688 128.479 458.729 130.786 458.821C133.093 458.914 135.216 460.085 137.155 462.334C139.095 464.584 139.94 466.856 139.693 469.152C139.445 471.447 138.155 473.6 135.822 475.612L120.66 488.685ZM132.163 470.778C134.079 469.126 134.355 467.509 132.99 465.926C131.625 464.343 129.985 464.378 128.068 466.03L112.323 479.606C110.407 481.258 110.131 482.875 111.496 484.458C112.861 486.041 114.501 486.007 116.418 484.354L132.163 470.778Z" fill="white"/>
  <path d="M90.7608 463.92C89.0578 461.442 88.4454 459.126 88.9235 456.974C89.4016 454.821 90.9249 452.862 93.4934 451.097L97.6182 448.262C100.187 446.497 102.562 445.776 104.743 446.102C106.924 446.427 108.866 447.828 110.569 450.306L112.189 452.663L124.11 444.47L127.536 449.456L95.8074 471.263L90.7608 463.92ZM107.656 455.778L106.036 453.421C105.475 452.605 104.833 452.157 104.11 452.076C103.366 451.964 102.45 452.282 101.362 453.03L96.6029 456.301C95.515 457.048 94.8898 457.789 94.7273 458.524C94.544 459.228 94.7328 459.989 95.2935 460.804L96.9134 463.161L107.656 455.778Z" fill="white"/>
  <path d="M80.9678 446.644L78.0925 441.321L90.8194 434.447L89.4601 431.93C88.0311 429.285 87.6691 426.918 88.3741 424.828C89.0791 422.739 90.8027 420.953 93.5449 419.472L97.9485 417.093C100.691 415.612 103.129 415.149 105.263 415.705C107.397 416.261 109.178 417.862 110.607 420.507L114.842 428.347L80.9678 446.644ZM70.7995 427.82L67.9241 422.497L101.798 404.199L104.673 409.522L70.7995 427.82ZM105.768 423.121C105.297 422.25 104.707 421.736 103.996 421.578C103.269 421.387 102.324 421.606 101.163 422.233L96.0815 424.978C94.9201 425.605 94.2194 426.276 93.9795 426.989C93.7221 427.669 93.8287 428.445 94.2992 429.316L95.6585 431.833L107.127 425.638L105.768 423.121Z" fill="white"/>
  <path d="M74.6704 389.324L79.8533 387.484L82.6325 395.31L93.2574 391.537L89.7605 381.69L94.9434 379.849L100.465 395.398L64.1846 408.281L58.663 392.733L63.8459 390.892L67.3429 400.74L77.4496 397.151L74.6704 389.324Z" fill="white"/>
  <path d="M89.8124 351.847L51.7609 357.707L50.9406 352.38L75.0218 348.671L66.3156 347.786L49.8524 345.313L48.8395 338.735L86.891 332.876L87.7197 338.258L60.9206 342.384L70.6471 343.391L88.8665 345.705L89.8124 351.847Z" fill="white"/>
  <path d="M58.0973 314.404C56.4484 314.462 55.322 314.777 54.7183 315.348C54.0767 315.884 53.7739 316.665 53.8099 317.691C53.8844 319.817 55.1859 320.835 57.7143 320.746L60.8474 320.637L61.042 326.188L58.1837 326.288C55.069 326.398 52.6791 325.729 51.0141 324.283C49.3124 322.839 48.4102 320.651 48.3075 317.719C48.2047 314.788 48.9692 312.523 50.6008 310.925C52.1959 309.328 54.5508 308.475 57.6655 308.365L58.6549 308.331C60.7436 308.258 62.4598 308.546 63.8034 309.196C65.1103 309.847 66.082 310.877 66.7184 312.286C67.8654 309.42 70.5093 307.915 74.6501 307.77L77.6732 307.664C80.788 307.555 83.2152 308.24 84.9547 309.72C86.6577 311.202 87.5605 313.408 87.6633 316.339C87.7661 319.271 87.0199 321.535 85.4249 323.132C83.7932 324.73 81.42 325.584 78.3052 325.693L74.0728 325.841L73.8724 320.125L78.4896 319.963C81.0181 319.874 82.2457 318.786 82.1725 316.697C82.1365 315.671 81.798 314.912 81.1571 314.421C80.4782 313.895 79.3326 313.66 77.7203 313.716L74.6971 313.822C72.9382 313.884 71.7032 314.239 70.9922 314.888C70.2445 315.538 69.8951 316.559 69.9439 317.951L69.9959 319.435L64.4993 319.628L64.4357 317.814C64.3933 316.605 64.0504 315.718 63.4069 315.154C62.7621 314.552 61.7068 314.278 60.241 314.329L58.0973 314.404Z" fill="white"/>
  <path d="M89.4677 283.068L88.5158 295.958L93.6717 296.339L93.2383 302.208L82.707 301.43L82.8812 299.071C82.2974 298.514 81.6282 298.115 80.8738 297.875C80.1221 297.599 79.1639 297.381 77.9991 297.222L50.0717 293.781L51.3193 276.887L84.3394 279.325L84.5338 276.692L95.0651 277.47L94.6236 283.449L89.4677 283.068ZM78.3269 291.29C79.7111 291.466 80.7763 291.728 81.5226 292.077C82.2716 292.39 82.8649 292.82 83.3024 293.367L83.8857 285.468L56.3507 283.435L55.974 288.536L78.3269 291.29Z" fill="white"/>
  <path d="M95.8425 255.18L88.7933 254.742L87.2414 262.003L93.8538 264.485L92.6927 269.917L56.3305 255.846L58.1813 247.187L97.1185 249.21L95.8425 255.18ZM83.5113 254.457L63.8621 253.238L82.2928 260.158L83.5113 254.457Z" fill="white"/>
  <path d="M86.4977 232.02L102.14 237.272L100.214 243.007L63.7162 230.752L65.642 225.017L81.2838 230.269L82.7193 225.994L75.8369 223.683C72.9171 222.702 70.9087 221.196 69.8116 219.165C68.7145 217.133 68.6386 214.71 69.584 211.894C70.5293 209.079 72.0524 207.192 74.1532 206.234C76.254 205.277 78.7643 205.288 81.6841 206.268L100.663 212.641C103.583 213.621 105.591 215.127 106.688 217.158C107.785 219.19 107.861 221.613 106.916 224.429C105.97 227.245 104.447 229.131 102.347 230.089C100.246 231.047 97.7355 231.035 94.8157 230.055L87.9333 227.744L86.4977 232.02ZM97.1064 224.442C99.5048 225.248 101.037 224.66 101.702 222.678C102.367 220.697 101.501 219.304 99.1021 218.498L79.3934 211.881C76.995 211.076 75.4632 211.664 74.7979 213.645C74.1327 215.626 74.9992 217.02 77.3977 217.825L97.1064 224.442Z" fill="white"/>
  <path d="M87.8005 177.867L92.6874 180.391L89.7855 186.011L119.107 201.151L116.331 206.527L87.0097 191.386L84.1078 197.006L79.2208 194.483L87.8005 177.867Z" fill="white"/>
  <path d="M131.854 162.67L141.203 169.912L137.498 174.695L107.061 151.119L110.766 146.336L124.028 156.608L115.616 140.074L119.321 135.291L127.734 152.452L149.758 158.867L145.952 163.781L130.217 159.037L131.854 162.67Z" fill="white"/>
  <path d="M133.859 134.659C131.655 132.507 130.501 130.278 130.395 127.971C130.29 125.665 131.275 123.449 133.35 121.324C135.424 119.199 137.616 118.162 139.924 118.212C142.233 118.262 144.489 119.363 146.692 121.515L161.017 135.501C163.221 137.652 164.375 139.881 164.481 142.188C164.586 144.494 163.601 146.71 161.526 148.835C159.451 150.96 157.26 151.998 154.952 151.947C152.643 151.897 150.387 150.796 148.184 148.645L133.859 134.659ZM152.686 144.585C154.496 146.352 156.131 146.488 157.591 144.993C159.051 143.497 158.876 141.866 157.066 140.099L142.19 125.575C140.38 123.807 138.745 123.671 137.285 125.167C135.825 126.662 136 128.293 137.81 130.061L152.686 144.585Z" fill="white"/>
  <path d="M163.257 96.7835L166.738 101.042L161.841 105.045L182.726 130.595L178.041 134.424L157.156 108.874L152.259 112.877L148.778 108.618L163.257 96.7835Z" fill="white"/>
  <path d="M172.369 91.4111L177.419 88.0797L185.384 100.154L187.771 98.5794C190.281 96.9239 192.608 96.3555 194.751 96.8744C196.894 97.3934 198.824 98.9536 200.54 101.555L203.296 105.733C205.012 108.335 205.687 110.723 205.32 112.897C204.954 115.072 203.516 116.987 201.006 118.642L193.568 123.549L172.369 91.4111ZM190.228 79.6302L195.278 76.2988L216.478 108.436L211.428 111.768L190.228 79.6302ZM197.977 114.051C198.804 113.506 199.265 112.873 199.36 112.151C199.485 111.41 199.185 110.488 198.458 109.386L195.278 104.565C194.551 103.463 193.822 102.824 193.091 102.648C192.39 102.451 191.626 102.625 190.8 103.171L188.413 104.745L195.59 115.626L197.977 114.051Z" fill="white"/>
</svg>
