<svg id="footer-scratch-2" viewBox="0 0 180 269" fill="none" xmlns="http://www.w3.org/2000/svg">
  <path d="M0 253L0 269H180V253L0 253Z" fill="white"/>
  <path d="M0 220L0 237H180V220H0Z" fill="white"/>
  <path d="M0 188L0 204H180V188H0Z" fill="white"/>
  <path d="M0 155L0 172L180 172V155L0 155Z" fill="white"/>
  <path d="M0 98L0 115L180 115V98L0 98Z" fill="white"/>
  <path d="M0 66L0 82L180 82V66L0 66Z" fill="white"/>
  <path d="M0 33L0 50L180 50V33L0 33Z" fill="white"/>
  <path d="M0 0L0 17L180 17V0L0 0Z" fill="white"/>
</svg>
