<svg id="paw" viewBox="0 0 125 95" fill="none" xmlns="http://www.w3.org/2000/svg">
  <path d="M44.5964 36.9902C51.9372 36.9902 57.8881 28.7096 57.8881 18.4951C57.8881 8.28053 51.9372 0 44.5964 0C37.2556 0 31.3047 8.28053 31.3047 18.4951C31.3047 28.7096 37.2556 36.9902 44.5964 36.9902Z" fill="black"/>
  <path d="M13.2917 70.3947C20.6325 70.3947 26.5834 62.1142 26.5834 51.8996C26.5834 41.6851 20.6325 33.4045 13.2917 33.4045C5.95089 33.4045 0 41.6851 0 51.8996C0 62.1142 5.95089 70.3947 13.2917 70.3947Z" fill="black"/>
  <path d="M111.69 70.3947C119.031 70.3947 124.982 62.1142 124.982 51.8996C124.982 41.6851 119.031 33.4045 111.69 33.4045C104.349 33.4045 98.3984 41.6851 98.3984 51.8996C98.3984 62.1142 104.349 70.3947 111.69 70.3947Z" fill="black"/>
  <path d="M99.6696 83.0907C99.6696 106.397 83.0187 88.3045 62.5001 88.3045C41.9815 88.3045 25.3306 106.397 25.3306 83.0907C25.3306 72.8827 32.7572 68.913 38.0594 61.632C44.8868 52.2473 50.9697 43.9053 62.5182 43.9053C74.0668 43.9053 81.3845 52.0643 88.2119 60.9734C93.8772 68.3825 99.7059 72.5169 99.7059 83.109L99.6696 83.0907Z" fill="black"/>
  <path d="M81.4206 36.9902C88.7614 36.9902 94.7123 28.7096 94.7123 18.4951C94.7123 8.28053 88.7614 0 81.4206 0C74.0798 0 68.1289 8.28053 68.1289 18.4951C68.1289 28.7096 74.0798 36.9902 81.4206 36.9902Z" fill="black"/>
</svg>
