<svg width="128" height="128" viewBox="0 0 128 128" fill="none" xmlns="http://www.w3.org/2000/svg">
  <path d="M124.953 119.099H3.04785V39.9807V8.89893L35.0847 34.8622H93.3076L124.953 8.89893V39.9807V119.099Z" fill="white"/>
  <path d="M65.3513 96.0446C68.7968 95.5984 71.4181 93.5026 71.4181 90.9606C71.4181 88.1076 68.0942 85.7954 64.0001 85.7954C59.906 85.7954 56.582 88.1076 56.582 90.9606C56.582 93.4891 59.1898 95.5984 62.6489 96.0446V103.495H56.7847V106.199H71.2155V103.495H65.3513V96.0446Z" fill="black"/>
  <path d="M40.3966 77.2162C45.954 77.2162 50.4591 72.7111 50.4591 67.1538C50.4591 61.5964 45.954 57.0913 40.3966 57.0913C34.8391 57.0913 30.334 61.5964 30.334 67.1538C30.334 72.7111 34.8391 77.2162 40.3966 77.2162Z" fill="black"/>
  <path d="M85.7842 77.2162C91.3417 77.2162 95.8468 72.7111 95.8468 67.1538C95.8468 61.5964 91.3417 57.0913 85.7842 57.0913C80.2268 57.0913 75.7217 61.5964 75.7217 67.1538C75.7217 72.7111 80.2268 77.2162 85.7842 77.2162Z" fill="black"/>
  <path d="M61.5203 51.3535H16.7217V82.903H61.5203V51.3535Z" fill="black"/>
  <path d="M111.278 51.3535H66.4795V82.903H111.278V51.3535Z" fill="black"/>
  <path d="M124.953 51.3535H111.278V55.1614H124.953V51.3535Z" fill="black"/>
  <path d="M16.7221 51.3535H3.04785V55.1614H16.7221V51.3535Z" fill="black"/>
  <path d="M66.5245 65.2275H61.4756V69.0355H66.5245V65.2275Z" fill="black"/>
</svg>
